<svg xmlns="http://www.w3.org/2000/svg" xmlns:xlink="http://www.w3.org/1999/xlink" width="16px" height="16px" viewBox="0 0 20 20" version="1.1">
    <!-- Generator: sketchtool 47 (45396) - http://www.bohemiancoding.com/sketch -->
    <title>D4BC6C37-723A-4B90-A006-0B1679779E45</title>
    <desc>Created with sketchtool.</desc>
    <defs/>
    <g id="Page-1" stroke="none" stroke-width="1" fill="none" fill-rule="evenodd">
        <g id="Медиа#2" transform="translate(-1285.000000, -170.000000)" fill="#6E6E6E">
            <path d="M1304.29289,172.734598 L1297.02749,180 L1304.29289,187.265402 L1304.29289,187.265402 C1304.68342,187.655926 1304.68342,188.289091 1304.29289,188.679615 L1303.67962,189.292893 L1303.67962,189.292893 C1303.28909,189.683418 1302.65593,189.683418 1302.2654,189.292893 L1295,182.027491 L1287.7346,189.292893 L1287.7346,189.292893 C1287.34407,189.683418 1286.71091,189.683418 1286.32038,189.292893 L1285.70711,188.679615 L1285.70711,188.679615 C1285.31658,188.289091 1285.31658,187.655926 1285.70711,187.265402 L1292.97251,180 L1285.70711,172.734598 L1285.70711,172.734598 C1285.31658,172.344074 1285.31658,171.710909 1285.70711,171.320385 L1286.32038,170.707107 L1286.32038,170.707107 C1286.71091,170.316582 1287.34407,170.316582 1287.7346,170.707107 L1295,177.972509 L1302.2654,170.707107 L1302.2654,170.707107 C1302.65593,170.316582 1303.28909,170.316582 1303.67962,170.707107 L1304.29289,171.320385 L1304.29289,171.320385 C1304.68342,171.710909 1304.68342,172.344074 1304.29289,172.734598 Z" id="clear---material"/>
        </g>
    </g>
<div xmlns="" id="divScriptsUsed" style="display: none"/><script xmlns="" id="globalVarsDetection" src="chrome-extension://cmkdbmfndkfgebldhnkbfhlneefdaaip/js/wrs_env.js"/></svg>