<svg xmlns="http://www.w3.org/2000/svg" xmlns:xlink="http://www.w3.org/1999/xlink" viewBox="0 0 24 24" version="1.1">
<g id="surface1">
<path style=" " d="M 9 2 L 2 5.3125 L 2 21.5 C 2 21.800781 2.199219 22 2.5 22 C 2.601563 22 2.6875 22.007813 2.6875 21.90625 L 9 19 L 15 22 L 22 18.6875 L 22 2.5 C 22 2.320313 21.933594 2.179688 21.8125 2.09375 C 21.75 2.050781 21.675781 2.011719 21.59375 2 C 21.585938 2 21.574219 2 21.5625 2 C 21.542969 1.996094 21.523438 2.003906 21.5 2 L 21.3125 2 L 15 4 Z M 9.09375 4.1875 L 14.3125 5.90625 L 15 6.09375 L 15 19.8125 L 9.90625 17.1875 L 9 16.8125 L 9 4.21875 Z "></path>
</g>
</svg>